<svg width="80" height="52" viewBox="0 0 80 52" fill="none" xmlns="http://www.w3.org/2000/svg">
<circle opacity="0.8" cx="18" cy="10" r="6" fill="white"/>
<circle opacity="0.8" cx="40" cy="6" r="6" fill="white"/>
<circle opacity="0.8" cx="62" cy="10" r="6" fill="white"/>
<path d="M2.0972 47V34.4H3.8972V45.578H9.6572V47H2.0972ZM15.4109 47.216C14.5589 47.216 13.7909 47.018 13.1069 46.622C12.4349 46.226 11.9009 45.674 11.5049 44.966C11.1209 44.246 10.9289 43.418 10.9289 42.482C10.9289 41.522 11.1269 40.688 11.5229 39.98C11.9189 39.26 12.4589 38.702 13.1429 38.306C13.8269 37.91 14.5949 37.712 15.4469 37.712C16.3109 37.712 17.0789 37.91 17.7509 38.306C18.4229 38.702 18.9509 39.254 19.3349 39.962C19.7309 40.67 19.9289 41.504 19.9289 42.464C19.9289 43.424 19.7309 44.258 19.3349 44.966C18.9509 45.674 18.4169 46.226 17.7329 46.622C17.0489 47.018 16.2749 47.216 15.4109 47.216ZM15.4109 45.668C15.9029 45.668 16.3469 45.548 16.7429 45.308C17.1509 45.068 17.4749 44.714 17.7149 44.246C17.9669 43.766 18.0929 43.172 18.0929 42.464C18.0929 41.756 17.9729 41.168 17.7329 40.7C17.4929 40.22 17.1689 39.86 16.7609 39.62C16.3649 39.38 15.9269 39.26 15.4469 39.26C14.9669 39.26 14.5229 39.38 14.1149 39.62C13.7069 39.86 13.3769 40.22 13.1249 40.7C12.8849 41.168 12.7649 41.756 12.7649 42.464C12.7649 43.172 12.8849 43.766 13.1249 44.246C13.3769 44.714 13.7009 45.068 14.0969 45.308C14.5049 45.548 14.9429 45.668 15.4109 45.668ZM25.0523 47.216C24.3083 47.216 23.6903 47.09 23.1983 46.838C22.7063 46.586 22.3403 46.25 22.1003 45.83C21.8603 45.398 21.7403 44.936 21.7403 44.444C21.7403 43.844 21.8963 43.334 22.2083 42.914C22.5203 42.482 22.9643 42.152 23.5403 41.924C24.1163 41.696 24.8063 41.582 25.6103 41.582H27.9683C27.9683 41.054 27.8903 40.616 27.7343 40.268C27.5783 39.92 27.3443 39.662 27.0323 39.494C26.7323 39.314 26.3483 39.224 25.8803 39.224C25.3403 39.224 24.8783 39.356 24.4943 39.62C24.1103 39.872 23.8703 40.25 23.7743 40.754H21.9743C22.0463 40.118 22.2623 39.578 22.6223 39.134C22.9943 38.678 23.4683 38.33 24.0443 38.09C24.6203 37.838 25.2323 37.712 25.8803 37.712C26.7323 37.712 27.4463 37.862 28.0223 38.162C28.5983 38.462 29.0303 38.888 29.3183 39.44C29.6183 39.98 29.7683 40.628 29.7683 41.384V47H28.2023L28.0583 45.47C27.9263 45.71 27.7703 45.938 27.5903 46.154C27.4103 46.37 27.1943 46.556 26.9423 46.712C26.7023 46.868 26.4203 46.988 26.0963 47.072C25.7843 47.168 25.4363 47.216 25.0523 47.216ZM25.3943 45.758C25.7783 45.758 26.1263 45.68 26.4383 45.524C26.7503 45.368 27.0143 45.158 27.2303 44.894C27.4583 44.618 27.6263 44.312 27.7343 43.976C27.8543 43.628 27.9203 43.274 27.9323 42.914V42.86H25.7903C25.2743 42.86 24.8543 42.926 24.5303 43.058C24.2183 43.178 23.9903 43.346 23.8463 43.562C23.7023 43.778 23.6303 44.03 23.6303 44.318C23.6303 44.618 23.6963 44.876 23.8283 45.092C23.9723 45.296 24.1763 45.458 24.4403 45.578C24.7043 45.698 25.0223 45.758 25.3943 45.758ZM36.0978 47.216C35.2338 47.216 34.4718 47.012 33.8118 46.604C33.1518 46.184 32.6358 45.62 32.2638 44.912C31.9038 44.192 31.7238 43.376 31.7238 42.464C31.7238 41.54 31.9038 40.724 32.2638 40.016C32.6358 39.308 33.1518 38.75 33.8118 38.342C34.4838 37.922 35.2518 37.712 36.1158 37.712C36.8238 37.712 37.4478 37.856 37.9878 38.144C38.5278 38.42 38.9478 38.816 39.2478 39.332V34.04H41.0478V47H39.4278L39.2478 45.596C39.0678 45.872 38.8338 46.136 38.5458 46.388C38.2578 46.628 37.9098 46.826 37.5018 46.982C37.0938 47.138 36.6258 47.216 36.0978 47.216ZM36.3858 45.65C36.9498 45.65 37.4478 45.518 37.8798 45.254C38.3118 44.99 38.6418 44.618 38.8698 44.138C39.1098 43.658 39.2298 43.1 39.2298 42.464C39.2298 41.828 39.1098 41.276 38.8698 40.808C38.6418 40.328 38.3118 39.956 37.8798 39.692C37.4478 39.416 36.9498 39.278 36.3858 39.278C35.8458 39.278 35.3598 39.416 34.9278 39.692C34.4958 39.956 34.1598 40.328 33.9198 40.808C33.6798 41.276 33.5598 41.828 33.5598 42.464C33.5598 43.1 33.6798 43.658 33.9198 44.138C34.1598 44.618 34.4958 44.99 34.9278 45.254C35.3598 45.518 35.8458 45.65 36.3858 45.65ZM43.6352 47V37.928H45.4352V47H43.6352ZM44.5532 36.218C44.2052 36.218 43.9172 36.11 43.6892 35.894C43.4732 35.678 43.3652 35.402 43.3652 35.066C43.3652 34.742 43.4732 34.478 43.6892 34.274C43.9172 34.058 44.2052 33.95 44.5532 33.95C44.8892 33.95 45.1712 34.058 45.3992 34.274C45.6272 34.478 45.7412 34.742 45.7412 35.066C45.7412 35.402 45.6272 35.678 45.3992 35.894C45.1712 36.11 44.8892 36.218 44.5532 36.218ZM48.0092 47V37.928H49.6292L49.7372 39.476C50.0252 38.936 50.4332 38.51 50.9612 38.198C51.4892 37.874 52.0952 37.712 52.7792 37.712C53.4992 37.712 54.1172 37.856 54.6332 38.144C55.1492 38.432 55.5512 38.87 55.8392 39.458C56.1272 40.034 56.2712 40.76 56.2712 41.636V47H54.4712V41.816C54.4712 40.976 54.2852 40.34 53.9132 39.908C53.5412 39.476 53.0012 39.26 52.2932 39.26C51.8252 39.26 51.4052 39.374 51.0332 39.602C50.6612 39.818 50.3612 40.142 50.1332 40.574C49.9172 41.006 49.8092 41.534 49.8092 42.158V47H48.0092ZM62.2636 51.176C61.4356 51.176 60.7036 51.068 60.0676 50.852C59.4316 50.648 58.9396 50.33 58.5916 49.898C58.2436 49.466 58.0696 48.938 58.0696 48.314C58.0696 47.99 58.1416 47.66 58.2856 47.324C58.4296 47 58.6636 46.688 58.9876 46.388C59.3116 46.088 59.7496 45.818 60.3016 45.578L61.3096 46.388C60.6976 46.616 60.2836 46.886 60.0676 47.198C59.8636 47.522 59.7616 47.834 59.7616 48.134C59.7616 48.494 59.8696 48.794 60.0856 49.034C60.3016 49.274 60.5956 49.454 60.9676 49.574C61.3516 49.694 61.7836 49.754 62.2636 49.754C62.7316 49.754 63.1396 49.688 63.4876 49.556C63.8356 49.424 64.1056 49.238 64.2976 48.998C64.4896 48.758 64.5856 48.476 64.5856 48.152C64.5856 47.768 64.4416 47.444 64.1536 47.18C63.8656 46.928 63.3136 46.778 62.4976 46.73C61.8136 46.682 61.2316 46.616 60.7516 46.532C60.2836 46.448 59.8816 46.346 59.5456 46.226C59.2216 46.106 58.9456 45.974 58.7176 45.83C58.5016 45.686 58.3156 45.536 58.1596 45.38V44.966L59.9596 43.112L61.4176 43.616L59.4556 45.434L59.8336 44.624C59.9656 44.708 60.0916 44.792 60.2116 44.876C60.3316 44.948 60.4936 45.014 60.6976 45.074C60.9016 45.134 61.1776 45.188 61.5256 45.236C61.8736 45.284 62.3296 45.332 62.8936 45.38C63.7096 45.44 64.3636 45.584 64.8556 45.812C65.3596 46.04 65.7256 46.346 65.9536 46.73C66.1816 47.114 66.2956 47.57 66.2956 48.098C66.2956 48.614 66.1516 49.106 65.8636 49.574C65.5876 50.042 65.1496 50.426 64.5496 50.726C63.9616 51.026 63.1996 51.176 62.2636 51.176ZM62.2636 44.21C61.4956 44.21 60.8416 44.066 60.3016 43.778C59.7736 43.49 59.3656 43.1 59.0776 42.608C58.8016 42.116 58.6636 41.57 58.6636 40.97C58.6636 40.358 58.8016 39.812 59.0776 39.332C59.3656 38.84 59.7796 38.45 60.3196 38.162C60.8596 37.862 61.5076 37.712 62.2636 37.712C63.0196 37.712 63.6616 37.862 64.1896 38.162C64.7296 38.45 65.1376 38.84 65.4136 39.332C65.7016 39.812 65.8456 40.358 65.8456 40.97C65.8456 41.57 65.7016 42.116 65.4136 42.608C65.1376 43.1 64.7296 43.49 64.1896 43.778C63.6616 44.066 63.0196 44.21 62.2636 44.21ZM62.2636 42.77C62.8516 42.77 63.3196 42.62 63.6676 42.32C64.0156 42.008 64.1896 41.558 64.1896 40.97C64.1896 40.382 64.0156 39.938 63.6676 39.638C63.3196 39.326 62.8516 39.17 62.2636 39.17C61.6756 39.17 61.2016 39.326 60.8416 39.638C60.4816 39.938 60.3016 40.382 60.3016 40.97C60.3016 41.558 60.4816 42.008 60.8416 42.32C61.2016 42.62 61.6756 42.77 62.2636 42.77ZM63.7396 39.35L63.3076 37.928H67.0336V39.17L63.7396 39.35ZM69.5592 47.09C69.2112 47.09 68.9232 46.982 68.6952 46.766C68.4792 46.538 68.3712 46.268 68.3712 45.956C68.3712 45.632 68.4792 45.362 68.6952 45.146C68.9232 44.918 69.2112 44.804 69.5592 44.804C69.9072 44.804 70.1892 44.918 70.4052 45.146C70.6212 45.362 70.7292 45.632 70.7292 45.956C70.7292 46.268 70.6212 46.538 70.4052 46.766C70.1892 46.982 69.9072 47.09 69.5592 47.09ZM73.4264 47.09C73.0784 47.09 72.7904 46.982 72.5624 46.766C72.3464 46.538 72.2384 46.268 72.2384 45.956C72.2384 45.632 72.3464 45.362 72.5624 45.146C72.7904 44.918 73.0784 44.804 73.4264 44.804C73.7744 44.804 74.0564 44.918 74.2724 45.146C74.4884 45.362 74.5964 45.632 74.5964 45.956C74.5964 46.268 74.4884 46.538 74.2724 46.766C74.0564 46.982 73.7744 47.09 73.4264 47.09ZM77.2936 47.09C76.9456 47.09 76.6576 46.982 76.4296 46.766C76.2136 46.538 76.1056 46.268 76.1056 45.956C76.1056 45.632 76.2136 45.362 76.4296 45.146C76.6576 44.918 76.9456 44.804 77.2936 44.804C77.6416 44.804 77.9236 44.918 78.1396 45.146C78.3556 45.362 78.4636 45.632 78.4636 45.956C78.4636 46.268 78.3556 46.538 78.1396 46.766C77.9236 46.982 77.6416 47.09 77.2936 47.09Z" fill="#D4D3D9"/>
</svg>
